<?xml version="1.0" encoding="UTF-8" standalone="no"?>
<!-- Created with Inkscape (http://www.inkscape.org/) -->

<svg
   width="210mm"
   height="297mm"
   viewBox="0 0 210 297"
   version="1.1"
   id="svg5"
   inkscape:version="1.2.2 (b0a8486541, 2022-12-01)"
   sodipodi:docname="logo.svg"
   xmlns:inkscape="http://www.inkscape.org/namespaces/inkscape"
   xmlns:sodipodi="http://sodipodi.sourceforge.net/DTD/sodipodi-0.dtd"
   xmlns="http://www.w3.org/2000/svg"
   xmlns:svg="http://www.w3.org/2000/svg">
  <sodipodi:namedview
     id="namedview7"
     pagecolor="#505050"
     bordercolor="#eeeeee"
     borderopacity="1"
     inkscape:showpageshadow="0"
     inkscape:pageopacity="0"
     inkscape:pagecheckerboard="0"
     inkscape:deskcolor="#505050"
     inkscape:document-units="mm"
     showgrid="false"
     inkscape:zoom="0.914906"
     inkscape:cx="397.85508"
     inkscape:cy="561.80635"
     inkscape:window-width="2556"
     inkscape:window-height="1381"
     inkscape:window-x="0"
     inkscape:window-y="0"
     inkscape:window-maximized="1"
     inkscape:current-layer="layer1" />
  <defs
     id="defs2" />
  <g
     inkscape:label="Layer 1"
     inkscape:groupmode="layer"
     id="layer1">
    <path
       style="fill:#000000;stroke-width:0.264583"
       d="m 120.30832,31.429277 c 1.99014,-0.258979 1.28603,-0.02455 2.58239,0.32534 0.37844,0.10215 0.7978,-0.103169 1.17597,0 0.21556,0.05881 0.36976,0.2755 0.58855,0.320823 0.40965,0.08486 0.86206,-0.143455 1.25505,0 0.20865,0.07617 0.36914,0.264625 0.58403,0.32082 0.56871,0.148725 1.25087,-0.143753 1.821,0 1.99068,0.501931 3.98317,0.966698 5.76238,2.127142 0.55138,0.359627 1.96035,1.338765 2.36662,1.752097 0.16692,0.16982 0.15478,0.468678 0.32309,0.637125 0.67548,0.676066 2.01872,1.158996 2.82639,1.558925 0.12217,0.06049 0.15987,0.246081 0.2892,0.289192 1.42194,0.47398 5.69731,-0.344665 7.42974,0 0.61208,0.121772 1.22471,0.495879 1.8323,0.619051 0.84623,0.171548 1.68797,0.131643 2.53382,0.303876 0.22527,0.04587 0.38685,0.272349 0.61227,0.317434 0.62328,0.124656 1.28613,-0.136779 1.90686,0 0.24903,0.05487 0.42874,0.29995 0.67779,0.354711 0.63639,0.139936 1.5205,-0.20882 2.14296,0 0.13052,0.04379 0.15827,0.252288 0.28919,0.294841 0.36001,0.117015 0.8364,-0.117853 1.19631,0 0.43019,0.14087 0.82711,0.468815 1.19178,0.58629 0.54267,0.174816 1.24404,0.133835 1.79616,0.289193 1.00826,0.283715 1.97598,0.792456 2.97777,1.037023 0.68327,0.16681 1.23202,0.79207 1.90573,0.966986 0.87542,0.227291 1.7895,0.0053 2.64113,0.289193 2.02247,0.674155 -0.42503,-0.07137 0.87323,0.58403 0.57885,0.292227 1.64258,0.460391 2.15877,0.638257 0.41286,0.142264 0.57028,0.670595 0.91841,0.934226 0.11147,0.08441 1.23635,0.600522 1.32395,0.685699 0.68511,0.666126 1.2687,1.891834 1.75097,2.634358 0.1726,0.265737 0.11519,0.642702 0.29484,0.903724 0.49512,0.719384 0.7658,0.896274 1.30023,1.589424 0.58889,0.763775 0.83696,1.744657 1.53859,2.425372 0.97805,0.948885 1.48904,2.345319 2.07179,3.529044 0.003,0.0064 -0.003,0.573646 0,0.582901 0.67711,2.03133 -0.0751,-0.478311 0.58517,0.902594 0.12555,0.262607 -0.0921,0.597088 0,0.873226 0.0431,0.129331 0.24628,0.159795 0.28918,0.289192 0.17963,0.541668 0.12422,1.272585 0.29485,1.816486 0.0436,0.138848 0.19655,0.214633 0.29484,0.32195 0.10167,0.298607 0.24128,0.586881 0.305,0.895819 0.31369,1.520817 -0.47189,4.610729 0,5.928431 0.33678,0.940406 1.28158,1.655162 1.85264,2.536076 0.83823,1.293064 2.25492,3.441952 2.7236,4.869945 0.0922,0.280855 -0.0915,0.605697 0,0.88678 0.15762,0.484349 0.43062,0.978591 0.61905,1.518259 0.15426,0.441817 -0.14808,1.040111 0,1.484365 0.45718,1.371558 0.57031,6.187929 0.28919,7.593544 -0.17873,0.893651 -0.76924,1.623891 -0.94326,2.475077 -0.12424,0.607658 -0.007,1.300723 -0.29484,1.87071 -0.0621,0.122843 -0.25106,0.158676 -0.29484,0.289192 -0.14232,0.424225 -0.13366,3.978828 0,4.38645 0.11185,0.341119 0.47117,0.564068 0.58403,0.904857 0.14026,0.423508 -0.19431,1.056158 0,1.451607 0.0606,0.123312 0.24649,0.163116 0.28919,0.293709 0.39898,1.220297 -0.57314,5.734937 -0.96133,6.905587 -0.0429,0.12939 -0.1928,0.19279 -0.2892,0.28919 -0.11597,0.31066 -0.25897,0.61252 -0.34793,0.93197 -0.20778,0.74613 0.37859,-0.21821 0,0.89581 -0.0443,0.13035 -0.251,0.1587 -0.29484,0.28919 -0.11817,0.35181 0.11732,0.82062 0,1.17259 -0.32074,0.96222 -0.75226,2.00671 -0.93761,3.0173 -0.0599,0.32668 0.0785,0.67366 0,0.99636 -0.0358,0.14721 -0.27048,0.17906 -0.32083,0.32196 -0.0652,0.18503 0.0484,0.39841 0,0.58854 -0.0611,0.24025 -0.55838,0.97569 -0.61905,1.20422 -0.18286,0.68879 0.2965,0.55434 -0.30049,1.18953 -0.0494,0.0525 -0.42904,-0.0456 -0.49366,0 -0.2427,0.17111 -0.4036,0.44118 -0.6439,0.61566 -0.85324,0.61951 -1.68909,0.50744 -2.63549,0.67327 -0.68918,-0.15299 -1.06426,0.55978 -1.6459,0.67554 -0.84213,0.16759 -1.77638,0.14563 -2.61403,0.35584 -0.73755,0.18509 -1.365,0.6407 -2.09438,0.88226 -0.5502,0.18221 -1.25292,0.14678 -1.8018,0.32308 -0.28462,0.0914 -0.58536,0.4913 -0.86758,0.5829 -1.29316,0.41976 -2.97775,-0.0813 -4.12776,0.29484 -0.13857,0.0453 -0.19149,0.23206 -0.32308,0.29484 -0.48227,0.23012 -5.21662,-0.2184 -5.59179,-0.32082 -0.21604,-0.059 -0.37306,-0.26515 -0.58968,-0.32195 -0.89895,-0.2357 -2.41623,0.41463 -3.2455,0 -0.0862,-0.0431 0.0865,-0.24675 0,-0.28919 -0.3783,-0.18553 -5.0722,-0.10375 -5.38507,0 -1.214,0.40257 -1.68378,0.46862 -2.89757,0.87322 -0.38041,0.12681 -3.20229,0.10537 -3.51435,0 -0.13044,-0.044 -0.15534,-0.26267 -0.2892,-0.29484 -0.62867,-0.15109 -1.49421,0.20729 -2.11132,0 -0.13151,-0.0442 -0.16177,-0.25201 -0.29371,-0.29484 -0.44244,-0.14362 -1.03621,0.11461 -1.48776,0 -0.21676,-0.055 -0.38302,-0.24572 -0.59985,-0.30049 -1.4333,-0.36207 -5.39757,0 -7.15072,0 -1.39749,0 -2.78429,0.13027 -4.09048,-0.29371 -1.02822,-0.33375 -5.86615,0 -7.39811,0 -0.21473,0 -3.96833,0.008 -3.97526,0 -0.0481,-0.0527 -1.11873,-2.77512 -0.88113,-2.98116 0.006,-0.005 0.56136,0.005 0.5716,0 0.5823,-0.28488 0.87343,-0.57534 1.16694,-1.15451 0.0872,-0.17197 -0.0587,-0.39474 0,-0.57838 0.70159,-2.19524 -0.0871,0.43458 0.5829,-0.9105 0.11612,-0.23314 -0.11647,-0.64029 0,-0.87323 0.26693,-0.53386 0.36984,-1.10952 0.57838,-1.73515 0.14863,-0.44587 0.10465,-3.65396 0,-4.04868 -0.0609,-0.22968 -0.24386,-0.41158 -0.32195,-0.636 -0.1655,-0.4756 0.331,-0.20557 0,-0.86758 -0.0431,-0.0862 -0.22103,0.0682 -0.28919,0 -0.1446,-0.14459 0.1446,-0.72297 0,-0.86757 -0.0682,-0.0682 -0.22103,0.0682 -0.28919,0 -0.0706,-0.0706 0,-0.72823 0,-0.83933 0,-0.68491 -0.36137,-2.93943 0,-3.43416 0.18865,-0.25828 0.47914,-0.43559 0.76477,-0.57951 0.46276,-0.23317 1.27605,0.23181 1.73967,0 0.12194,-0.061 0.16726,-0.22823 0.2892,-0.28919 0.10207,-0.051 4.63262,-0.0718 4.77618,0 0.12193,0.061 0.19326,0.19232 0.28919,0.28919 0.48062,0.48531 1.22018,0.89702 1.7826,1.17823 0.38526,0.19263 1.06155,-0.19406 1.44596,0 0.92344,0.46619 1.85571,0.53157 2.90773,0.87774 0.32984,0.10854 0.8538,-0.15311 1.16242,0 0.12308,0.0611 0.16324,0.2461 0.2937,0.28919 0.627,0.20711 1.65195,-0.29179 2.24237,0 0.99665,0.49255 1.7971,1.39046 2.85238,1.72386 0.98105,0.30994 2.23654,-0.24626 3.2376,0 1.26672,0.3116 2.59761,0.46901 3.83179,0.87774 0.43721,0.14479 1.01923,-0.14563 1.45612,0 0.23254,0.0775 1.42293,0.60142 1.73515,0.28919 0.3107,-0.3107 -0.1148,-0.82542 0.48688,-1.12626 0.4307,-0.21535 1.01726,-0.36403 1.44597,-0.57839 0.22837,-0.11419 0.62368,0.0813 0.86757,0 1.67989,-0.55996 3.1513,-1.27403 4.66887,-2.04016 0.25984,-0.13117 0.59691,0.0915 0.87322,0 0.14403,-0.0477 0.20213,-0.23818 0.3389,-0.30387 0.0883,-0.0424 0.1958,0 0.29371,0 0.19279,0 0.40594,0.0862 0.57838,0 0.0862,-0.0431 -0.0682,-0.22103 0,-0.28919 0.13633,-0.13633 0.40561,0.0855 0.57838,0 1.18228,-0.58542 -0.28861,0.0108 0.29484,-0.58404 0.0675,-0.0688 0.22103,0.0682 0.2892,0 0.23137,-0.23138 -0.15318,-1.14255 0,-1.44596 0.21479,-0.42547 1.45374,-2.317038 0.87322,-2.897563 -0.0682,-0.06816 -0.20281,0.04278 -0.28919,0 -0.15665,-0.07757 -0.87323,-1.07656 -0.87323,-1.162415 0,-0.0964 0.2892,0.0964 0.2892,0 0,-0.272653 -0.45645,-0.334515 -0.57839,-0.578384 -0.18436,-0.368715 -0.22929,-2.832015 -0.28919,-2.891917 -0.0682,-0.06817 -0.24668,0.08652 -0.28919,0 -0.71595,-1.457058 0.66431,0.09346 -0.29484,-0.911633 -0.46721,-0.489587 -1.02959,-0.729712 -1.55215,-1.230196 -0.071,-0.06798 0.0436,-0.206764 0,-0.294838 -0.55184,-1.114457 -1.34198,-2.327013 -0.86757,-3.759494 0.0433,-0.130685 0.22857,-0.171241 0.28919,-0.294841 0.12053,-0.245766 0.16751,-2.73005 0,-2.897566 -0.0682,-0.06816 -0.22103,0.06816 -0.28919,0 -0.23372,-0.233717 -0.0972,-2.904024 0,-3.202574 0.21834,-0.670936 0.40861,-1.182931 0.64955,-1.843596 0.23724,-0.650541 -0.23276,-0.547931 -0.57952,-0.894688 -0.12692,-0.126932 -0.11434,-1.800175 0,-2.028862 0.19018,-0.380357 0.44968,-0.768737 0.57839,-1.162416 0.17692,-0.267369 -0.0881,-0.602421 0,-0.88339 0.71007,-2.264043 -0.0844,0.405788 0.58855,-0.937615 0.1709,-0.341146 1.02874,-3.699997 0.61114,-4.117594 -0.0682,-0.06816 -0.22103,0.06817 -0.28919,0 -0.13633,-0.136326 0.0854,-0.405543 0,-0.578384 -0.1221,-0.247071 -0.45703,-0.343366 -0.57838,-0.59081 -0.0864,-0.176141 0.0872,-0.412805 0,-0.588549 -0.12894,-0.259893 -0.45773,-0.877253 -0.73315,-1.011042 -0.0857,-0.04163 -0.21844,0.06737 -0.2858,0 -0.0674,-0.06737 0.0678,-0.218837 0,-0.285803 -0.18019,-0.178075 -1.09389,-0.173752 -1.44596,-0.289192 -1.06462,-0.349076 -2.20125,-1.220171 -3.35056,-1.518256 -0.72147,-0.187121 -0.78582,0.06103 -1.50131,-0.289192 -0.24128,-0.1181 -0.98052,0.183025 -1.16355,0 -0.0682,-0.06817 0.0682,-0.221031 0,-0.289192 -0.2552,-0.255199 -1.46591,-0.605296 -1.72498,-0.867577 -0.0648,-0.06563 0.0664,-0.212754 0,-0.276765 -1.21414,-1.169778 -0.13056,0.08094 -0.87661,-0.289192 -0.25904,-0.128514 -0.3742,-0.451485 -0.61454,-0.612272 -0.56922,-0.380823 -1.32841,-0.668909 -1.87296,-0.936485 -0.56613,-0.278175 -1.01216,-0.87304 -1.52843,-1.229066 -0.27633,-0.190564 -0.8777,-0.294797 -1.17258,-0.58968 -0.0682,-0.06816 0.0682,-0.221028 0,-0.289192 -0.0999,-0.09989 -0.77435,-0.197125 -0.87435,-0.294839 -0.069,-0.06737 0.0682,-0.22103 0,-0.289192 -0.6823,-0.682299 -4.97655,1.450433 -5.42461,1.205341 -0.24248,-0.132635 -0.34202,-0.459089 -0.58855,-0.58403 -0.0853,-0.04324 -0.21957,0.06789 -0.28693,0 -0.59222,-0.596879 0.91812,0.02103 -0.2971,-0.578385 -0.53143,-0.262128 -1.24745,-0.616701 -1.77695,-0.88452 -1.11147,-0.562169 0.55016,-0.03142 -0.61792,-0.59081 -0.0883,-0.04228 -0.22395,0.06869 -0.29371,0 -0.0687,-0.06763 0.0661,-0.219003 0,-0.289192 -0.2789,-0.296257 -1.14367,-0.0072 -1.43128,-0.294838 -0.0682,-0.06817 0.065,-0.218041 0,-0.289193 -0.11273,-0.123332 -0.75041,0.07383 -0.90146,0 -0.43607,-0.213135 -0.77077,-0.384005 -1.19631,-0.589679 -0.39153,-0.189243 -1.06525,0.194305 -1.45386,0 -0.64446,-0.322228 -4.25863,-1.044752 -4.34127,-1.127398 -0.0682,-0.06816 0.0682,-0.221027 0,-0.289192 -0.0682,-0.06816 -0.21352,0.05971 -0.28919,0 -0.12002,-0.0947 0.0736,-0.324646 0,-0.458639 -0.80531,-1.465906 0.19455,-5.686907 -0.28919,-6.663838 -0.2881,-0.58183 -0.28894,-1.167562 -0.57839,-1.746449 -0.14665,-0.293293 -0.11436,-2.1308 -0.28919,-2.305626 -0.0682,-0.06816 -0.22103,0.06816 -0.28919,0 -0.13525,-0.135253 -0.0875,-1.620989 -0.28919,-2.024343 -0.16803,-0.336061 -0.41172,-0.530979 -0.57839,-0.867574 -0.13247,-0.267531 0.19781,-0.969127 0,-1.166935 -0.0682,-0.06816 -0.22103,0.06816 -0.28919,0 -0.18298,-0.182985 0.12131,-0.906864 0,-1.146601 -0.12157,-0.240265 -0.6234,-1.527265 -0.2858,-1.871839 0.0638,-0.06509 0.20986,0.06535 0.27337,0 0.12667,-0.130331 -0.14116,-0.752282 0,-0.863058 0.0619,-0.04858 0.18633,0.06097 0.2361,0 0.12674,-0.155228 -0.1502,-0.788413 0,-0.917279 0.36799,-0.315719 0.58268,-0.881456 1.07883,-1.657204 z"
       id="path207" />
    <path
       style="fill:#000000;stroke-width:0.264583"
       d="m 119.55596,31.002266 c -2.06253,-1.590842 -6.49004,2.330008 -8.08833,1.538592 -0.70284,-0.348025 -0.70014,-0.913212 -0.88452,-1.492277 -0.21233,-0.66685 -0.89077,-1.510961 -1.19518,-2.131658 -0.0819,-0.167013 0.13347,-0.428477 0,-0.558051 -0.0648,-0.06295 -0.23312,0.082 -0.27111,0 -0.082,-0.17698 0.0541,-0.397756 0,-0.58516 -0.29415,-1.01926 -0.7275,-2.318518 -1.31605,-3.166425 -0.26014,-0.374776 -1.86148,1.894051 -1.91816,2.007396 -0.57894,1.157894 -2.98736,3.008749 -4.08709,3.561805 -0.65526,0.329533 0.0624,-0.323218 -0.58403,0 -0.91005,0.455023 -1.994614,0.406419 -2.895309,0.867577 -0.155856,0.0798 -0.371009,-0.0828 -0.525291,0 -0.815083,0.437443 -1.96732,0.966605 -2.711172,1.5352 -0.252791,0.193233 -0.411943,0.496191 -0.675534,0.674404 -0.526092,0.355693 -1.528932,0.387522 -2.114717,0.584033 -0.132275,0.04437 -0.163814,0.251235 -0.295968,0.295969 -0.40713,0.137816 -2.249119,0.189812 -2.630969,0 -0.139557,-0.06937 -0.306871,-0.492827 -0.578382,-0.28919 -0.203221,0.152413 0.28919,4.401312 0.28919,5.087966 0,2.420853 0,4.841706 0,7.262556 0,0.929698 0.181086,2.074818 0,2.983421 -0.42096,2.11219 -1.529096,4.189026 -2.06049,6.226661 -0.287309,1.101686 0.04032,2.516437 0.294838,3.54034 0.31836,1.280758 -0.0387,3.277729 -0.32082,4.451974 -0.26475,1.101955 -1.089986,2.042679 -1.273122,3.21613 -0.314034,2.01218 -0.752999,4.026164 -1.267474,6.000728 -0.10505,0.389454 0.101574,0.818835 0,1.208733 -0.16783,0.644226 -0.46052,1.231596 -0.615661,1.882005 -0.266063,1.115407 0,2.666844 0,3.818237 0,1.923428 -0.137396,-0.409467 0.293708,0.878872 0.170752,0.510283 0.123164,0.953571 0.289193,1.466291 0.04483,0.138443 0.231986,0.190707 0.294841,0.321953 0.608568,1.270767 1.254937,2.483924 0.873223,4.078057 -0.46087,1.924709 -1.533816,3.663268 -2.385833,5.40766 -0.873157,1.787674 0.07263,-0.367723 -0.32195,1.314919 -0.190431,0.812061 -0.872498,1.195387 -1.200825,1.846987 -0.08675,0.172172 0.08622,0.405942 0,0.578385 -0.355954,0.711906 -0.610759,1.253889 -0.867577,2.024343 -0.09145,0.274351 0.06956,0.586874 0,0.867574 -0.05258,0.212169 -0.221183,0.380812 -0.289192,0.588549 -0.476485,1.455518 0.345109,4.480748 0,6.094488 -0.04846,0.22663 -0.26239,0.39254 -0.32082,0.6168 -0.150001,0.5757 0.118914,1.26096 0,1.84472 -0.234665,1.15199 -0.342654,2.28461 -0.62357,3.39349 -0.369771,1.45962 0.364588,3.1976 0,4.6587 -0.110004,0.44084 -0.514194,0.77743 -0.600978,1.22342 -0.05998,0.30826 0.0671,0.63534 0,0.94213 -0.07118,0.32545 -0.977,1.61134 -1.029115,1.70126 -0.442068,0.76273 -0.638945,1.69016 -0.908243,2.50332 -0.503378,1.51996 2.887329,3.14482 3.491764,4.35369 0.08622,0.17244 -0.08622,0.40594 0,0.57838 1.171848,2.3437 0.867577,5.13557 0.867577,7.82739 0,0.53887 -0.183115,1.53239 0,2.03338 0.494747,1.35359 0.5842,4.72306 0.320821,6.20067 -0.186923,1.04869 -0.841272,2.01077 -1.056228,3.05572 -0.157652,0.7664 -0.43054,1.4815 -0.62244,2.23559 -0.0508,0.19961 0.06256,0.42168 0,0.61792 -0.04141,0.12989 -0.246081,0.15987 -0.289192,0.28919 -0.139626,0.41888 -0.08436,1.0363 -0.289192,1.44597 -0.06097,0.12193 -0.24769,0.15933 -0.289193,0.28918 -0.137517,0.43029 0.09275,1.044 0,1.48776 -0.277368,1.32713 -0.637317,2.52228 -0.965853,3.79565 -0.174411,0.67599 -0.06012,1.08634 -0.289192,1.77355 -0.951699,2.8551 2.422281,6.64021 3.096384,9.36033 0.375542,1.51536 -0.256246,3.98784 -0.873223,5.20997 -0.359854,0.71282 0.07158,2.23454 0.289192,2.89757 0.336172,1.02427 0,4.20902 0,5.55677 0,0.81028 0.252408,2.1347 0,2.89192 -0.292483,0.87746 -2.850509,3.56484 -2.401646,4.39549 0.462068,0.8551 1.567846,1.42113 2.052582,2.38131 0.158623,0.31421 0,1.06503 0,1.4053 0,0.43699 0.109915,1.03854 0,1.45499 -0.156986,0.59481 -1.869504,3.82051 -1.606371,4.30173 0.224841,0.41118 0.6661,0.72771 0.873226,1.1579 0.995445,2.06746 1.166934,3.22715 1.166934,5.58953 0,0.4782 0.146815,1.30831 0,1.75436 -0.433469,1.31695 -0.79834,2.65589 -1.24714,3.9922 -0.364125,1.08419 -0.219945,0.15485 -0.895818,1.19179 -0.270298,0.4147 -0.769959,2.71134 -0.582901,3.27035 0.0436,0.13029 0.249907,0.15897 0.293711,0.28919 0.167519,0.49805 0.119534,1.00327 0.294839,1.49793 0.111037,0.3133 0.4612,0.60383 0.612275,0.90598 0.23831,0.47662 0.113051,2.47376 0,2.90999 -0.06003,0.23165 -0.21313,0.42852 -0.319694,0.64278 -0.118237,0.33324 -0.278976,0.65434 -0.354711,0.99974 -0.184107,0.83962 -0.176133,1.77465 -0.353584,2.60951 -0.05507,0.2591 -0.298931,0.45184 -0.35584,0.71055 -0.134046,0.60938 0.109347,1.25755 0,1.87184 -0.177104,0.99494 -0.434729,1.959 -0.678924,2.91451 -0.194164,0.75975 -0.175823,6.94619 0,7.67262 0.07577,0.31307 0.237501,0.60252 0.300487,0.91841 0.193371,0.96975 -0.299886,0.27304 0,1.50131 0.03297,0.13503 0.253056,0.16228 0.294842,0.29484 0.09351,0.29664 -0.09635,0.63737 0,0.9331 0.164425,0.50466 0.456266,0.97929 0.582903,1.49227 0.09314,0.37728 -0.123457,0.79734 0,1.16581 0.04399,0.13128 0.262239,0.15887 0.293709,0.29371 0.288004,1.23398 -0.02363,2.84437 -0.295968,4.00237 -0.270997,1.15224 0,2.66122 0,3.85212 0,0.92649 -0.211397,9.73978 0,10.15448 0.06252,0.12264 0.232798,0.1663 0.294838,0.28919 0.207661,0.41134 -0.131625,1.18835 0.289192,2.02999 0.439047,0.8781 -0.365956,4.10757 0,5.20546 0.415827,1.24746 0.565595,2.33413 0.877742,3.63297 0.58714,2.44303 -0.934061,4.669 -1.520515,6.8118 -0.121822,0.44514 0.144838,1.03291 0,1.47082 -0.145844,0.44096 -0.289192,0.33814 -0.289192,0.86757 0,0.24374 -0.148236,1.21727 0,1.39063 0.568793,0.66518 4.940075,0.96133 6.157753,0.96133 1.168757,0 2.133029,0.38264 3.487246,0.6281 1.707978,0.30953 3.781247,0 5.516107,0 0.453001,0 2.460794,0.26193 3.010532,0 0.671383,-0.31991 1.087369,-1.34287 1.706909,-1.7634 0.645774,-0.43836 1.692471,-0.76713 2.23107,-1.30701 0.526341,-0.52761 0.318861,-0.58315 0.939871,-0.91051 0.77962,-0.41098 4.98729,0.60592 5.69911,0.9444 0.95198,0.45265 3.40944,-0.46254 4.34353,0 0.50253,0.24881 0.95921,0.33097 1.46177,0.57838 0.17433,0.0858 0.4098,-0.0882 0.58291,0 0.77626,0.39571 1.54041,0.77682 2.37001,1.17483 1.56921,0.75287 -0.87432,-0.15587 0.6168,0.58968 0.17412,0.0871 0.4099,-0.087 0.58403,0 0.55662,0.27831 1.08263,0.36089 1.73515,0.5784 0.97406,0.32467 2.55375,-0.45387 3.4703,0 0.18196,0.0901 0.78055,0.38172 0.87887,0.57838 0.0431,0.0862 -0.0865,0.24667 0,0.28919 0.17608,0.0865 0.41248,-0.0865 0.58855,0 0.0865,0.0425 -0.0682,0.22103 0,0.28919 0.15242,0.15243 0.38559,0.1928 0.57839,0.28919 0.69186,0.34594 1.86049,-0.24307 2.60272,0 0.1383,0.0453 0.1836,0.24977 0.32196,0.29485 0.51246,0.16698 1.48236,-0.26532 1.95204,0 1.406,0.79417 5.39251,0.30499 7.20946,0.30499 1.1269,0 2.0911,-0.41323 3.16191,-0.61905 0.50142,-0.0964 1.0506,0.17076 1.53181,0 0.14303,-0.0507 0.17791,-0.27199 0.32082,-0.32308 0.41294,-0.14761 1.73794,0.29773 2.02887,0 0.0689,-0.0706 -0.0698,-0.2262 0,-0.29597 0.0698,-0.0698 0.28189,0.0977 0.29596,0 0.0488,-0.33824 -0.72636,-0.43717 -0.79527,-0.50609 -0.18935,-0.18934 -0.17985,-0.66831 -0.57839,-0.86757 -0.0862,-0.0431 -0.22156,0.0687 -0.28919,0 -0.30566,-0.31044 -0.29484,-0.98994 -0.29484,-1.46291 0,-0.43225 -0.11241,-1.04021 0,-1.45047 0.34435,-1.25677 3.71634,-3.82833 3.13141,-4.93546 -0.27672,-0.52377 -0.89685,-0.90432 -1.17372,-1.45275 -0.0443,-0.0877 0.0688,-0.22468 0,-0.29482 -0.0675,-0.0688 -0.22102,0.0682 -0.28919,0 -0.0682,-0.0682 0.0428,-0.2028 0,-0.28919 -0.24423,-0.49326 -0.33522,-0.0972 -0.5829,-0.5897 -0.42857,-0.8522 -1.12861,-1.76327 -1.52164,-2.7541 -0.62523,-1.57615 -1.14942,-3.18157 -1.77018,-4.75922 -0.49639,-1.26162 -1.61749,-3.26567 -1.91589,-4.49491 -0.55231,-2.27517 -0.79939,-4.52305 -1.51261,-6.66271 -0.59049,-1.77146 1.52906,-4.00886 2.44006,-5.18738 0.49912,-0.64569 1.00924,-0.82507 1.27199,-1.62218 0.16503,-0.50067 0.10347,-6.53215 0,-6.84459 -0.17107,-0.51653 -0.70007,-0.95006 -0.87323,-1.4629 -0.35216,-1.04299 0,-5.29473 0,-6.79375 0,-0.51053 -0.43129,-0.99289 -0.5829,-1.44596 -0.24145,-0.72157 0,-1.92161 0,-2.67615 0,-3.07096 -0.14186,0.71951 0.31744,-1.60637 0.10205,-0.51682 -0.13078,-1.07009 0,-1.58039 0.0596,-0.23262 0.2445,-0.41698 0.32308,-0.6439 0.13926,-0.40222 -0.1915,-1.0505 0,-1.42676 0.51938,-1.0205 0.93056,-2.26224 1.49905,-3.37089 0.31048,-0.60549 1.45837,-1.20685 0.97037,-2.12375 -0.28738,-0.53996 -0.83239,-0.94093 -1.16241,-1.44596 -0.54311,-0.83112 -0.71333,-1.94582 -1.24375,-2.83657 -0.20857,-0.35024 -0.52965,-0.6354 -0.68796,-1.01104 -0.0804,-0.19085 0.0497,-0.42027 0,-0.62131 -0.20086,-0.81177 -0.85047,-1.26514 -1.27199,-1.91251 -0.23006,-0.35331 -0.13267,-0.83985 -0.2892,-1.23132 -1.22929,-2.35938 0.39715,0.99451 -0.32195,-1.23471 -0.0425,-0.13177 -0.25232,-0.16159 -0.29371,-0.29372 -0.49552,-1.58186 0.2381,-4.41217 0.62583,-5.93182 0.14941,-0.58558 -0.29423,-7.9e-4 0,-0.87209 0.0445,-0.13168 0.25099,-0.16295 0.29484,-0.29484 0.40885,-1.22969 -0.021,-3.28229 -0.32421,-4.43503 -0.50497,-1.91957 0.40468,-4.2031 0,-6.14984 -0.0471,-0.22641 -0.26605,-0.39014 -0.32195,-0.61453 -0.1278,-0.513 0.12675,-1.07278 0,-1.58604 -0.0844,-0.34179 -0.34479,-0.62265 -0.58743,-0.87774 -0.0599,-0.063 -0.20023,0.0623 -0.26094,0 -0.0623,-0.0639 0.0662,-0.20787 0,-0.26773 -0.0732,-0.0662 -0.22541,0.0689 -0.29597,0 -0.069,-0.0674 0.0682,-0.22103 0,-0.2892 -0.95981,-0.9598 0.53457,1.42555 -0.57839,-0.28918 -1.48326,-2.28527 -3.80593,-4.18472 -5.92504,-5.8776 -0.71776,-0.5734 -1.27292,-1.50119 -2.04468,-2.00288 -0.20446,-0.0979 -0.40893,-0.19581 -0.6134,-0.29371 0,-0.0979 0.0687,-0.22395 0,-0.29371 -0.0676,-0.0687 -0.22247,0.0696 -0.28919,0 -0.21901,-0.22835 -0.0722,-0.67672 -0.29371,-0.9026 -0.0675,-0.0688 -0.22103,0.0682 -0.28919,0 -0.15722,-0.15722 -1.28662,-2.28567 -1.46517,-2.64904 -0.1982,-0.40338 -0.11529,-2.20139 0,-2.60612 0.0185,-0.0648 1.35834,-2.74155 1.40529,-2.82074 0.16172,-0.27279 0.5107,-0.40034 0.67215,-0.67328 0.43381,-0.73337 0.48279,-1.56169 0.67666,-2.32031 -0.22331,-0.5862 0.50323,-0.58626 0.61905,-0.9444 0.12306,-0.38049 -0.12587,-0.82012 0,-1.19969 0.0429,-0.1294 0.24663,-0.15968 0.28919,-0.28919 0.1418,-0.43148 0.14655,-4.19986 0,-4.6395 -0.63411,-1.90234 0.0609,0.42363 -0.61679,-0.90598 -0.23948,-0.46988 -0.33949,-0.98965 -0.5829,-1.47646 -0.4419,-0.88381 0.3212,-8.03765 0,-9.66307 -0.27685,-1.40099 -0.88636,-2.55182 -1.22906,-3.94137 -0.38714,-1.56973 0.49587,-3.5378 0,-5.07103 -0.07,-0.21649 -0.24049,-0.3947 -0.29484,-0.61566 -0.0464,-0.18867 0.0863,-0.40884 0,-0.5829 -0.0429,-0.0864 -0.22143,0.0686 -0.2892,0 -0.30345,-0.30698 -0.42997,-0.85484 -0.58968,-1.18049 -0.29678,-0.60516 -1.19371,-0.90663 -1.49905,-1.50809 -0.12513,-0.24648 -0.1652,-0.63071 -0.28919,-0.87774 -0.12374,-0.24654 -0.4618,-0.33844 -0.58516,-0.58516 -0.0862,-0.17244 0.0862,-0.40595 0,-0.57839 -0.35532,-0.71063 -0.51226,-1.6029 -0.86758,-2.31353 -0.15263,-0.30526 0.10492,-0.82889 0,-1.15677 -0.28789,-0.89968 -0.28092,-1.75214 -0.57838,-2.64452 -0.42091,-1.26271 0.35324,-2.76493 -0.29484,-4.04869 -0.0732,-0.14503 0.12255,-0.79879 0,-0.90937 -0.0716,-0.0646 -0.22183,0.069 -0.28919,0 -0.1379,-0.14113 0.13789,-0.45081 0,-0.59194 -0.0674,-0.0689 -0.22183,0.069 -0.2892,0 -0.1504,-0.15393 -0.10232,-2.33707 0,-2.54172 0.16925,-0.3385 0.41412,-0.531 0.58404,-0.86758 0.27955,-0.55376 0.2953,-1.18594 0.57838,-1.7521 0.0862,-0.17244 -0.087,-0.40634 0,-0.57838 0.12486,-0.24687 0.46426,-0.33801 0.58855,-0.58516 0.14917,-0.29661 0.14123,-0.86192 0.28919,-1.16016 0.16973,-0.34211 0.41254,-0.53898 0.5829,-0.87774 0.13078,-0.26004 -0.0927,-0.5973 0,-0.87322 0.0436,-0.12974 0.23006,-0.16688 0.29146,-0.2892 0.13794,-0.27482 -0.0159,-0.54883 0.28919,-1.15902 0.0474,-0.0949 0.0219,-3.9763 0,-4.01932 -0.69175,-1.3622 -0.30913,-2.6697 -0.87662,-3.80468 -0.11612,-0.23225 0.11101,-0.63248 0,-0.86757 -0.18128,-0.38395 -0.64024,-0.62647 -0.83142,-1.01556 -0.0433,-0.0882 0.0688,-0.22468 0,-0.294844 -0.0675,-0.06882 -0.22103,0.06816 -0.28919,0 -0.18296,-0.182959 0.1192,-0.916043 0,-1.156766 -0.0611,-0.123367 -0.22858,-0.171239 -0.28919,-0.294841 -0.19241,-0.39233 -0.12966,-5.238938 0,-5.825633 0.0799,-0.361619 0.29592,-0.686086 0.36149,-1.050578 0.18366,-1.021043 -0.35308,-4.457505 0,-5.163656 0.12561,-0.251235 0.73527,-1.610699 0.87322,-1.747579 0.17767,-0.176299 0.38961,-0.125301 0.58742,-0.498178 0.36821,-0.6941 0.57917,-1.779953 0.91728,-2.493148 0.0594,-0.125272 0.52157,-0.456668 0.5829,-0.578384 0.0817,-0.162057 0.4889,-1.07451 0.57838,-1.161286 0.0714,-0.0692 0.22781,0.07016 0.29824,0 0.0701,-0.0699 -0.0435,-0.208118 0,-0.2971 0.26423,-0.540859 0.31202,-0.05061 0.5829,-0.584031 0.30149,-0.593717 -0.0662,-4.117898 -0.2971,-4.579625 -0.21089,-0.421762 -0.46263,-0.462627 -0.57839,-0.578382 -0.1302,-0.130204 0.13212,-0.42414 0,-0.552402 -0.0648,-0.06295 -0.2093,0.06593 -0.27111,0 -0.014,-0.01495 -0.42974,-2.88721 -0.58291,-3.193537 -0.35965,-0.719307 -1.09841,-1.324732 -1.45047,-2.028862 -0.16673,-0.333454 -0.12665,-0.834797 -0.2892,-1.156766 -0.17159,-0.339905 -0.41406,-0.533281 -0.58403,-0.873223 -0.60754,-1.215083 0.70847,-3.740645 1.17823,-4.680164 0.11419,-0.228375 -0.0813,-0.623687 0,-0.867574 0.0682,-0.204492 0.22103,-0.373896 0.2892,-0.578385 0.12165,-0.364966 0.17915,-2.08965 0,-2.447964 -0.35736,-0.714709 -0.2892,0.09982 -0.2892,-0.578382 0,-1.112057 -0.17262,-2.372715 0.2892,-3.305374 0.43517,-0.87884 -0.36479,-4.102232 0,-5.17947 0.27709,-0.818266 0.54423,-1.690579 0.89807,-2.39826 0.33032,-0.660643 0,-2.435458 0,-3.181109 0,-0.798547 0.28919,-1.225796 0.28919,-2.024343 0,-0.176477 0.11268,-1.044085 0,-1.156766 -0.0682,-0.06817 -0.22103,0.06816 -0.28919,0 -0.0765,-0.07655 0,-0.748496 0,-0.867577 0,-0.226438 0.1443,-1.301657 0,-1.445958 -0.0682,-0.06816 -0.22103,0.06816 -0.28919,0 -0.17182,-0.171821 -0.0737,-0.615276 -0.24514,-0.787371 -0.0656,-0.0659 -0.21444,0.06693 -0.27902,0 -0.0669,-0.06937 0.0682,-0.221028 0,-0.28919 -0.0682,-0.06816 -0.22103,0.06816 -0.28919,0 -0.0682,-0.06816 0.0682,-0.22103 0,-0.289192 -0.16708,-0.167079 -0.56391,-0.211598 -0.83708,-0.75574 -0.11464,-0.22838 0.20541,-2.585588 0.28919,-2.669376 0.3856,-0.38559 0.2892,0.481986 0.2892,-0.289192"
       id="path211" />
    <path
       style="fill:#000080;stroke-width:1.09301"
       d="m 486.93527,1085.4148 c -0.90173,-0.6129 -3.18172,-0.8323 -5.06662,-0.4877 -1.88491,0.3446 -3.72946,0.1374 -4.09899,-0.4605 -0.36954,-0.5979 -2.59908,-0.8287 -4.95454,-0.5127 -3.60149,0.483 -5.07087,0.01 -9.23844,-2.9846 -4.38622,-3.1499 -5.48855,-3.4738 -9.5914,-2.8177 -4.34838,0.6953 -14.96401,-1.0807 -16.23539,-2.7162 -1.00477,-1.2926 -7.14251,-4.0926 -14.1341,-6.4479 -5.18694,-1.7473 -8.32617,-2.1641 -12.51651,-1.6619 -3.92617,0.4707 -8.19921,0.01 -14.33721,-1.5622 -10.69355,-2.7304 -16.16908,-2.8745 -18.15801,-0.478 -0.81623,0.9835 -3.45869,2.9991 -5.87213,4.4791 -2.41344,1.48 -5.61771,4.1025 -7.1206,5.8278 l -2.73252,3.1369 -15.30212,0.2138 c -8.41617,0.1176 -18.49917,-0.3488 -22.40667,-1.0364 -3.90751,-0.6876 -11.89755,-1.7212 -17.75565,-2.2967 -5.8581,-0.5756 -11.19635,-1.3835 -11.86279,-1.7953 -1.8393,-1.1368 -0.17743,-13.9648 2.94616,-22.7414 3.19448,-8.9758 3.45413,-15.0712 1.0731,-25.1917 -0.97799,-4.1569 -1.73274,-11.5347 -1.67721,-16.3951 0.0555,-4.8605 -0.45296,-11.54235 -1.12994,-14.8487 -0.7963,-3.88907 -1.14269,-18.36055 -0.98109,-40.98782 0.21334,-29.87032 -0.0171,-35.93864 -1.57849,-41.56858 -3.6594,-13.19477 -3.95675,-33.09719 -0.80785,-54.06966 2.36139,-15.72739 3.39601,-20.9865 4.55448,-23.15112 2.02112,-3.77649 1.72685,-11.97579 -0.60093,-16.74369 -3.04812,-6.24336 -2.97326,-15.97361 0.14873,-19.33224 1.29241,-1.39036 3.55279,-6.70869 5.02308,-11.8185 2.31941,-8.06088 2.57057,-10.52026 1.8975,-18.58114 -0.77158,-9.24075 -2.95426,-16.27793 -6.14102,-19.79925 -1.50823,-1.66658 -1.34598,-2.60451 1.6812,-9.71827 4.76281,-11.19244 4.63439,-17.43535 -0.47498,-23.09082 -2.10404,-2.32892 -3.82553,-4.99776 -3.82553,-5.93074 0,-0.93298 1.8987,-4.49751 4.21933,-7.92116 l 4.21933,-6.22483 0.5617,-14.20911 c 0.30935,-7.8255 0.0545,-16.98555 -0.56724,-20.38912 -0.91267,-4.99613 -0.78163,-7.41777 0.68402,-12.6413 3.20644,-11.4277 2.54932,-16.57283 -3.76903,-29.51048 -6.55949,-13.43144 -7.18453,-16.85232 -4.94895,-27.08579 0.91929,-4.20808 2.2511,-10.60218 2.95957,-14.20911 1.65986,-8.4506 3.66377,-15.99621 7.80068,-29.37308 3.10208,-10.03071 3.2804,-11.49557 2.5279,-20.76716 -0.44528,-5.48637 -0.96518,-16.74673 -1.15535,-25.023 -0.45802,-19.9339 -1.9041,-24.4313 -10.5611,-32.84577 -7.43569,-7.22738 -7.45429,-7.39982 -2.02483,-18.77997 4.3072,-9.0279 5.34332,-13.56466 5.99103,-26.2322 0.30738,-6.01155 1.09229,-14.86492 1.74425,-19.67416 0.65195,-4.80923 1.32099,-14.64631 1.48674,-21.86017 0.30746,-13.38125 1.93129,-20.23029 6.42092,-27.08234 1.02629,-1.5663 2.55869,-4.72098 3.40534,-7.01038 0.84665,-2.28942 3.30739,-8.0974 5.46829,-12.90664 4.81033,-10.70569 5.06254,-16.15717 1.1376,-24.58947 -3.86218,-8.29745 -5.01993,-18.36053 -3.14411,-27.32843 0.81733,-3.90751 2.53908,-12.51495 3.8261,-19.12765 1.28702,-6.6127 3.58531,-15.22014 5.1073,-19.12765 3.18957,-8.18877 4.21952,-18.56171 2.74493,-27.64501 -0.9563,-5.89071 -0.72655,-7.22192 3.3012,-19.12764 l 4.32904,-12.79631 -0.47081,-28.41822 -0.47081,-28.41822 5.30576,0.38087 c 2.91817,0.20948 5.90637,-0.0916 6.64044,-0.66904 0.73407,-0.57745 2.63066,-1.35882 4.21463,-1.73638 1.58398,-0.37755 5.39156,-2.37664 8.46129,-4.44241 5.11948,-3.44516 8.9485,-4.90176 21.58647,-8.21173 5.33076,-1.39615 14.67515,-8.52617 17.79952,-13.5815 1.21721,-1.969486 3.14216,-4.421671 4.27768,-5.449306 2.68545,-2.430293 3.92359,-1.01056 6.09889,6.993416 0.88924,3.27191 3.28201,9.14597 5.31728,13.05348 3.21451,6.17154 4.14439,7.14867 7.08075,7.44053 1.95674,0.19449 6.52416,-0.99697 10.84557,-2.82917 10.74283,-4.55475 12.95884,-4.93537 16.89208,-2.90142 1.868,0.96598 6.16747,1.94258 9.55439,2.17022 3.38692,0.22763 8.6173,0.95069 11.62307,1.60678 3.00578,0.65609 7.67839,1.3712 10.38358,1.58913 10.86776,0.8755 29.00121,9.49395 33.61723,15.97757 0.75541,1.06105 4.19839,3.486 7.65106,5.38878 l 6.27758,3.4596 12.71049,-0.67217 c 8.66863,-0.45841 13.70839,-0.26425 15.84862,0.61059 3.52511,1.44093 8.63723,2.34985 26.16837,4.65268 6.65509,0.87418 14.77068,2.37809 18.03464,3.34201 11.83383,3.49478 20.18884,6.36547 22.32962,7.67221 1.20231,0.7339 4.64528,1.63239 7.65106,1.99665 3.00577,0.36427 7.41349,1.67123 9.79493,2.90437 2.38143,1.23313 5.03487,2.24206 5.89651,2.24206 0.86166,0 2.60211,1.00385 3.86768,2.23078 1.26557,1.22693 3.72442,3.3528 5.46409,4.72414 1.73968,1.37135 4.6908,5.23569 6.55805,8.58742 1.86725,3.35174 6.97653,11.40832 11.35396,17.90352 4.37742,6.4952 8.21899,13.06261 8.53684,14.59424 0.31784,1.53164 1.00638,3.58498 1.53009,4.563 0.52373,0.97801 1.29753,3.68321 1.71958,6.01154 0.42204,2.32834 1.46967,5.62007 2.32806,7.31494 1.13118,2.23348 1.46699,6.18845 1.22018,14.37009 -0.33999,11.27064 -0.33487,11.29601 3.23142,16.04605 5.3973,7.18883 13.36478,20.80158 13.97988,23.88521 0.29978,1.50289 1.04929,4.20808 1.66556,6.01155 0.61627,1.80346 1.3965,10.65683 1.73385,19.67415 0.56036,14.9784 0.41363,16.89448 -1.69812,22.17388 -1.27131,3.17832 -2.31148,6.96115 -2.31148,8.40631 0,1.44515 -0.49186,2.93153 -1.09301,3.30307 -1.75946,1.08741 -1.31518,15.52756 0.59117,19.21403 0.92629,1.79126 1.36014,3.78115 0.96409,4.42197 -0.39605,0.64082 -0.0826,2.35631 0.69658,3.8122 1.18002,2.20489 1.10725,4.39328 -0.43567,13.10109 -1.01877,5.74973 -2.5238,11.7665 -3.3445,13.3706 -0.82072,1.6041 -1.83595,5.12989 -2.25608,7.83509 -0.42013,2.70519 -1.41911,7.37781 -2.21996,10.38358 -0.80085,3.00577 -1.95685,7.43246 -2.56892,9.83707 -2.68516,10.54927 -3.66431,12.1343 -9.01133,14.58728 -2.82259,1.2949 -6.35863,2.35436 -7.85785,2.35436 -1.49924,0 -4.13469,0.73475 -5.85658,1.63278 -1.7219,0.89802 -4.60628,1.65739 -6.40974,1.68748 -1.80347,0.0301 -5.24645,0.80451 -7.65106,1.72092 -2.40462,0.91642 -6.33945,2.15268 -8.74407,2.74723 -2.40462,0.59457 -4.8393,1.54466 -5.41039,2.11135 -0.5711,0.56668 -3.63813,1.03032 -6.81562,1.03032 -3.1775,0 -7.98223,0.58974 -10.67721,1.31054 -3.84246,1.0277 -6.97139,1.01336 -14.49804,-0.0665 -5.27896,-0.75733 -12.13539,-1.32132 -15.23653,-1.25333 -3.10114,0.068 -5.95833,-0.39396 -6.34931,-1.02658 -1.24043,-2.00706 -16.78295,-1.31889 -25.50818,1.12941 -8.93752,2.50788 -17.07653,2.31765 -31.91012,-0.74581 -2.10404,-0.43453 -12.18705,-0.89244 -22.40668,-1.01757 -10.21962,-0.12514 -22.77651,-0.60382 -27.90418,-1.06375 -5.12768,-0.45991 -15.54923,-0.47711 -23.15902,-0.0381 l -13.83596,0.79802 1.02559,2.69752 c 0.56408,1.48362 1.02559,5.191 1.02559,8.23861 0,10.46829 4.37574,31.37259 7.29362,34.84395 0.79775,0.94907 1.45045,2.11909 1.45045,2.60005 0,0.48096 1.74618,2.9015 3.88038,5.37898 2.13422,2.47748 4.47053,5.23019 5.19179,6.11712 0.8229,1.01191 1.35986,6.10134 1.44147,13.66261 0.10154,9.40462 0.65271,13.4897 2.51075,18.60804 2.15677,5.94121 2.35016,8.30578 2.05596,25.13919 -0.31271,17.89258 -0.22792,18.75013 2.28791,23.14124 2.39039,4.17214 2.56393,5.42749 2.0398,14.75562 -0.35306,6.28346 -1.2481,11.45369 -2.33267,13.47454 -0.96789,1.80346 -1.76284,4.31936 -1.76654,5.59089 -0.003,1.27153 -0.92403,3.48487 -2.04517,4.91854 -4.11775,5.26561 -7.79864,14.01836 -7.79864,18.54429 0,4.46206 4.75731,15.21311 6.73176,15.21311 0.50562,0 0.9193,0.61964 0.9193,1.37696 0,0.75734 5.96374,6.53662 13.25275,12.84285 7.28901,6.30625 15.02508,13.67923 17.19128,16.38443 2.16619,2.7052 5.33499,6.14817 7.04176,7.65106 3.06299,2.69707 3.10984,2.92391 3.61245,17.48813 0.28007,8.11559 1.05748,18.34073 1.72756,22.72252 0.8559,5.59682 0.8773,8.68585 0.072,10.38358 -0.63051,1.32918 -1.7265,6.10558 -2.43556,10.61424 -0.70905,4.50866 -1.45677,9.08562 -1.6616,10.17102 -0.57289,3.03581 3.60636,16.94467 6.10824,20.32864 1.2265,1.65895 2.34526,3.71374 2.48612,4.5662 0.48392,2.92861 7.58512,16.85434 10.19523,19.99325 2.42736,2.91909 2.49054,3.30552 0.89368,5.46504 -6.64232,8.98278 -10.64507,24.43223 -10.51353,40.57913 0.16569,20.33766 1.77194,38.38303 3.67429,41.27855 1.54146,2.34623 1.91277,5.34651 1.91277,15.45584 v 12.54445 l -5.43108,6.20638 c -2.98709,3.41352 -6.49492,8.40404 -7.7952,11.09004 -2.03578,4.20537 -2.19468,5.44919 -1.14414,8.95562 0.671,2.23957 2.20864,8.87689 3.417,14.74958 1.22783,5.96732 4.55878,16.30324 7.55085,23.4302 2.94462,7.0138 5.71673,13.9821 6.16026,15.485 1.46367,4.9596 6.76621,14.6658 11.33054,20.7404 2.47111,3.2887 4.49291,6.5668 4.49291,7.2847 0,0.7179 -2.7052,4.6055 -6.01155,8.6392 -5.43159,6.6265 -6.01154,7.8397 -6.01154,12.576 0,4.3671 0.54728,5.7892 3.27902,8.521 4.15823,4.1582 4.12695,4.983 -0.15647,4.1263 -1.88953,-0.3779 -3.97991,-0.2462 -4.64529,0.2926 -2.82257,2.2858 -41.47012,4.3448 -44.38362,2.3647 z m 80.30712,-683.09633 c 0.66937,-2.109 5.69377,-4.46339 9.52508,-4.46339 1.13593,0 5.85811,-1.662 10.49373,-3.69333 4.63563,-2.03134 10.88768,-4.38916 13.89345,-5.23962 4.84478,-1.37079 5.49918,-1.91302 5.7658,-4.77749 0.1654,-1.77715 1.35878,-5.57312 2.65195,-8.43548 l 2.3512,-5.20428 -2.3787,-2.21611 c -1.30829,-1.21884 -2.3787,-2.93471 -2.3787,-3.81303 0,-0.87831 -0.45646,-1.59693 -1.01436,-1.59693 -0.5579,0 -1.35755,-2.74677 -1.777,-6.10392 -0.6101,-4.88304 -1.58633,-7.05563 -4.88083,-10.86212 -5.37065,-6.2053 -8.5148,-14.15632 -6.72883,-17.01609 1.56563,-2.507 1.70882,-12.62623 0.19191,-13.56374 -1.62031,-1.0014 -1.3285,-6.66837 0.71916,-13.96619 1.44819,-5.16126 1.5324,-6.63145 0.41929,-7.31938 -2.01773,-1.24704 0.0698,-14.982 2.94704,-19.38992 0.86886,-1.33111 1.80654,-5.26594 2.08372,-8.74407 0.42786,-5.36887 0.0413,-7.23073 -2.55937,-12.32894 -2.31887,-4.5457 -3.86022,-6.23421 -6.34236,-6.94791 -1.80347,-0.51857 -5.90301,-2.13514 -9.1101,-3.59238 -3.20709,-1.45726 -8.12563,-2.95802 -10.93008,-3.33504 -5.24582,-0.70526 -8.67274,-2.34675 -13.11138,-6.28034 -1.40103,-1.24162 -2.75883,-2.12658 -3.01733,-1.9666 -0.79398,0.4914 -16.83978,-9.73844 -20.6004,-13.13357 -2.79572,-2.52399 -6.01048,-2.41299 -15.12418,0.52228 -6.83006,2.19976 -7.68329,2.26804 -8.82532,0.70623 -0.69534,-0.95093 -3.2629,-2.74861 -5.7057,-3.99482 -2.4428,-1.24623 -5.08359,-3.03959 -5.86843,-3.98527 -0.78483,-0.94567 -2.59638,-1.7194 -4.02566,-1.7194 -1.42928,0 -2.59869,-0.43603 -2.59869,-0.96895 0,-0.9416 -1.76952,-1.42508 -12.02309,-3.28504 -7.58077,-1.37511 -15.65497,-3.43862 -17.67307,-4.51668 -1.5197,-0.81182 -1.94623,-0.2538 -2.55353,3.34079 -0.401,2.37348 -0.4024,7.88619 -0.003,12.25045 0.76005,8.30745 0.10777,12.28335 -3.83044,23.34898 l -2.3738,6.66987 2.28688,5.02 c 1.25778,2.76101 2.28688,5.36946 2.28688,5.79657 0,0.42711 1.23829,2.40004 2.75177,4.3843 1.51347,1.98427 3.21579,6.05449 3.7829,9.04493 0.56713,2.99045 2.03404,7.30835 3.25978,9.59533 1.60559,2.99567 2.22865,6.19982 2.22865,11.46107 0,4.0166 -0.38899,7.46686 -0.86443,7.66725 -1.5703,0.66185 -7.59492,10.3989 -8.9219,14.41966 -0.71679,2.17187 -1.76624,4.23501 -2.33213,4.58475 -0.56588,0.34974 -1.98724,2.51443 -3.15858,4.81044 -1.63365,3.20222 -2.15158,6.55818 -2.22366,14.4082 -0.0517,5.62851 -0.19295,16.71148 -0.31394,24.62882 -0.20755,13.58072 -0.0809,14.54322 2.23927,17.01207 1.35259,1.43931 2.45926,3.13149 2.45926,3.76042 0,0.75312 3.5117,0.95983 10.28611,0.60548 9.46717,-0.4952 10.56899,-0.3366 13.83904,1.99188 1.9541,1.39144 5.5639,2.88291 8.02179,3.31436 2.45787,0.43146 7.91182,1.56252 12.11991,2.51348 4.20808,0.95098 9.52985,1.73758 11.82615,1.74802 2.82894,0.0129 5.71177,1.07622 8.94101,3.298 4.02221,2.76736 5.81012,3.27903 11.45775,3.27903 3.68052,0 9.986,0.72066 14.01218,1.60147 14.70546,3.21714 19.54995,3.37759 20.40743,0.6759 z"
       id="path351"
       transform="scale(0.26458333)" />
    <path
       style="fill:#0000ff;stroke-width:0.264583"
       d="m 134.34541,274.4566 c -1.3208,-3.02821 -2.89409,-5.96318 -4.02609,-9.07113 -0.36799,-1.01035 -0.58937,-2.07614 -1.03024,-3.05686 -0.37552,-0.83533 -1.02999,-1.52556 -1.4053,-2.36098 -1.27516,-2.83847 -2.45044,-6.78479 -2.88513,-9.9003 -0.27375,-1.96194 -0.0175,-4.4465 1.00878,-6.18374 0.16568,-0.28046 0.48032,-0.44584 0.67327,-0.70829 0.28338,-0.38547 0.3069,-0.94151 0.64052,-1.28442 0.22431,-0.23056 1.04743,-0.46116 1.22002,-0.63712 0.21671,-0.22095 0.12384,-0.62281 0.29597,-0.88001 0.0758,-0.11329 0.25625,-0.1569 0.2892,-0.28919 0.68392,-2.74637 -1.17494,-5.11071 -1.89895,-7.60823 -1.1081,-3.82242 -0.0114,-0.73663 -0.41685,-3.77305 -0.1507,-1.12846 -0.63278,-2.19551 -0.78737,-3.32344 -0.0984,-0.71791 -0.23726,-5.24765 0,-5.91149 0.49693,-1.39035 0.53249,-3.49897 0.32421,-5.00212 -0.0685,-0.49471 -0.6203,-1.53085 -0.70829,-2.02547 -0.0582,-0.32735 0.0494,-0.66869 0,-0.99749 -0.19641,-1.30625 -0.7974,-2.27979 -1.03025,-3.57084 -0.0386,-0.21382 0.0573,-0.44223 0,-0.65181 -0.0651,-0.23813 -0.30183,-0.40865 -0.35584,-0.64955 -0.16692,-0.50844 0.11444,-1.06617 0,-1.58039 -0.0728,-0.32695 -0.2925,-0.61146 -0.35245,-0.941 -0.46246,-2.54206 0.48341,-5.34752 0,-7.885 -0.62415,-3.27617 -3.12773,-5.61163 -4.88124,-8.33008 -0.75454,-1.16975 -0.85108,-2.32109 -1.19857,-3.56067 -0.15515,-0.55347 -0.78267,-1.07097 -0.93535,-1.55779 -0.33378,-1.06423 0.44138,-0.24276 -0.30049,-1.23133 -0.84916,-1.13154 -2.29796,-2.40426 -2.99472,-3.57649 -0.37771,-0.63546 -0.4395,-1.41339 -0.7162,-2.0989 -0.32006,-0.79293 -0.87367,-1.45619 -1.03024,-2.32257 -0.46661,-2.58187 -0.36763,-5.14967 0.002,-7.77316 -0.0336,-0.94255 0.55578,-1.73033 0.70829,-2.62306 0.054,-0.31624 0,-0.64165 0,-0.96247 0.11824,-0.34304 0.29105,-0.6719 0.35471,-1.02911 0.0906,-0.50825 -0.16419,-1.05931 0,-1.54876 0.0446,-0.13304 0.25206,-0.16533 0.2971,-0.29823 0.18057,-0.26028 -0.0903,-0.59284 0,-0.86758 0.0685,-0.2083 0.23679,-0.3779 0.28919,-0.59081 0.0696,-0.28263 -0.13017,-0.61287 0,-0.87322 0.061,-0.12193 0.24609,-0.15986 0.28919,-0.28919 0.13176,-0.39527 0,-1.32277 0,-1.7408 0,-0.9545 0.10553,-1.82798 -0.28919,-2.61741 -0.12933,-0.25866 0.0909,-0.59305 0,-0.86758 -0.19873,-0.60009 -0.67431,-1.16825 -0.87322,-1.75661 -0.18529,-0.26063 0.0919,-0.59631 0,-0.8721 -0.23061,-0.69182 -0.57838,-1.64194 -0.57838,-2.32483"
       id="path1039" />
    <path
       style="fill:#0000ff;stroke-width:0.264583"
       d="m 116.4415,137.61464 c -0.439,-3.20218 -0.99128,-6.30034 -1.67641,-9.42924 -0.19131,-0.87371 0.20911,-1.88726 0,-2.75636 -0.0454,-0.18886 -0.53604,-2.52763 -0.57838,-2.56319 -0.0756,-0.0634 -0.22336,0.0668 -0.29597,0 -0.11473,-0.10553 -0.11829,-2.02274 0,-2.25479 0.17078,-0.33501 0.42563,-0.53371 0.58855,-0.87209 0.0892,-0.18525 -0.14368,-0.46974 0,-0.61679 0.0674,-0.069 0.24675,0.0866 0.28919,0 0.0866,-0.17648 -0.0879,-0.41388 0,-0.58968 0.044,-0.0879 0.22535,0.0695 0.29484,0 0.13766,-0.13766 -0.13898,-0.44772 0,-0.58403 0.0702,-0.0688 0.20694,0.0439 0.29485,0 0.61758,-0.3088 -0.004,-0.57938 0.29483,-0.87775 0.0682,-0.0682 0.2217,0.0688 0.2892,0 0.13763,-0.14032 -0.0872,-0.41353 0,-0.58968 0.0605,-0.12217 0.24638,-0.15976 0.28919,-0.28919 0.0689,-0.20829 0.23805,-2.27483 0.28919,-2.32596 0.0682,-0.0682 0.22103,0.0682 0.28919,0 0.19243,-0.19242 -0.19242,-0.38596 0,-0.57839 0.13633,-0.13632 0.40568,0.0857 0.57838,0 0.72189,-0.35814 -0.0999,-0.28919 0.58856,-0.28919"
       id="path1045" />
    <path
       style="fill:#0000ff;stroke-width:0.264583"
       d="m 122.74724,113.18245 c 3.03353,1.20734 6.32693,0.87887 9.5727,0.87887 0.9312,0 -0.49766,-0.0687 0.57839,0.29371 0.21555,0.0726 1.52303,0.0733 1.73967,0 0.13014,-0.0441 0.16649,-0.23188 0.28919,-0.29371 0.49101,-0.24741 3.06309,0 3.75723,0 0.10191,0 0.76658,-0.0703 0.8303,0 0.0647,0.0714 -0.0688,0.22169 0,0.28919 0.0805,0.079 1.82442,0.18585 2.04016,0.29371 1.20354,0.60178 -0.30916,-0.02 0.28919,0.57839 0.0682,0.0682 0.20297,-0.0431 0.28919,0 1.25046,0.62522 -0.67208,-0.0469 0.57838,0.57838 0.65547,0.32773 2.36856,0 3.0738,0 2.45624,0 4.91249,0 7.36874,0"
       id="path1047" />
    <path
       style="fill:#0000ff;stroke-width:0.264583"
       d="m 166.37002,117.48982 c 1.0491,-0.28138 1.91516,-1.41587 2.86142,-1.72724 0.18492,-0.0609 0.39913,0.0609 0.58403,0 0.2625,-0.0865 0.32552,-0.49917 0.58855,-0.58403 0.19638,-0.0634 0.4226,0.0631 0.61905,0 0.43485,-0.13976 1.05569,-0.90013 1.45613,-1.16129 0.20029,-0.13063 0.47255,-0.15173 0.64164,-0.32082 0.34661,-0.34661 0.39341,-0.90814 0.68909,-1.2991 0.5148,-0.68068 1.27888,-1.38755 1.55893,-2.22768 0.11003,-0.33011 0.5279,-0.99749 0.29596,-1.42676 -0.0881,-0.16311 -0.57094,-0.8437 -0.28015,-1.1161 0.14366,-0.13458 0.41349,-0.14458 0.54223,-0.2858 0.25237,-0.27682 0.13166,-0.83378 0.2892,-1.14886 0.23256,-0.46514 0.72076,-0.97749 0.87322,-1.44596 0.0274,-0.0842 -0.0257,-1.09141 0,-1.19518 0.24718,-0.99816 0.58855,-1.91924 0.58855,-2.9789"
       id="path1049" />
    <path
       style="fill:#0000ff;stroke-width:0.264583"
       d="m 177.39546,85.551072 c -0.22481,-0.743312 -0.49686,-1.473946 -0.67441,-2.22994 -0.11837,-0.504044 0.10438,-1.046146 0,-1.553276 -0.1521,-0.739034 -0.53306,-1.455944 -0.6744,-2.226551 -0.0918,-0.500745 0.10885,-1.029969 0,-1.527294 0.0955,-0.662521 -0.51446,-1.060106 -0.6552,-1.627833 -0.4408,-1.778055 -1.16971,-3.476106 -1.59394,-5.260805 -0.26665,-1.121738 -1.45076,-1.884225 -1.9464,-2.89192 -0.59545,-1.210609 -1.17762,-2.449732 -1.92042,-3.548247 -0.40386,-0.597279 -0.12475,-1.00543 -0.61453,-1.490015"
       id="path1051" />
    <path
       style="fill:#0000ff;stroke-width:0.264583"
       d="m 123.03417,277.13839 c -1.31973,0.12062 -1.89192,0.0515 -2.90547,-0.61566 -0.5191,-0.34171 -1.14997,-0.73464 -1.53407,-1.24489 -0.13147,-0.17462 -0.13284,-0.43579 -0.28919,-0.58854 -0.52049,-0.50847 -1.36674,-0.87839 -1.95318,-1.32961 -0.67301,-0.51784 -1.15156,-1.20483 -1.91251,-1.59734 -0.51481,-0.26554 -4.82819,0 -5.67313,0 -1.57477,0 -7.16256,0.33668 -8.19226,0 -1.016878,-0.33245 -0.21859,-0.28919 -0.884518,-0.28919"
       id="path1053" />
    <path
       style="fill:#0000ff;stroke-width:0.264583"
       d="m 93.657482,276.69445 c -0.218249,-0.15542 -2.314321,-0.36529 -2.740546,-0.57838 -0.602067,-0.30105 -0.747816,-1.07125 -1.156766,-1.48212 -0.178702,-0.17955 -0.473136,-0.19717 -0.673275,-0.35245 -0.795787,-0.61743 -2.977533,-3.2852 -3.276002,-4.20119 -0.06358,-0.19513 0.06336,-0.42047 0,-0.61566 -0.04242,-0.1307 -0.252547,-0.15811 -0.293708,-0.28921 -0.134152,-0.4272 -0.139052,-3.44517 0,-3.96283 0.265699,-0.98914 0.611142,-1.91343 0.611142,-2.97212 0,-0.75252 0.233312,-1.92848 0,-2.62306 -0.153069,-0.45569 -0.58855,-0.98197 -0.58855,-1.49227"
       id="path1055" />
    <path
       style="fill:#0000ff;stroke-width:0.264583"
       d="m 86.599394,246.90542 c -0.271254,-2.55342 0.460893,-5.2928 0,-7.81157 -0.428302,-2.34065 -0.903145,-4.62113 -1.41546,-6.91349 -0.0044,-0.0197 0.0044,-1.21288 0,-1.23471 -0.19412,-0.96856 -0.404482,-1.86771 -0.645033,-2.78686 -0.09295,-0.35517 0.09329,-0.87636 0,-1.23133 -0.05904,-0.22464 -0.266166,-0.39189 -0.32421,-0.61679 -0.172188,-0.66715 0.181126,-1.47412 0,-2.13844 -0.06941,-0.25459 -0.283887,-0.45378 -0.353584,-0.70829 -0.557157,-2.03461 0.641647,-4.01451 0.641647,-5.96458"
       id="path1057" />
    <path
       style="fill:#0000ff;stroke-width:0.264583"
       d="m 85.967916,208.15824 c -0.251709,-2.40021 -0.585944,-5.06509 -0.259821,-7.47945 0.05032,-0.37255 0.301254,-0.69931 0.350194,-1.07205 0.06921,-0.52716 -0.07185,-1.06826 0,-1.59507 0.04767,-0.34953 0.305314,-0.64804 0.353581,-0.99749 0.07126,-0.51587 -0.07058,-1.04634 0,-1.56231 0.136076,-0.99479 0.523627,-1.98595 0.696998,-2.97777 0.05732,-0.3279 -0.07487,-0.67427 0,-0.99862 0.08289,-0.35906 0.692279,-0.89186 0.910502,-1.23132 0.313476,-0.48763 0.35836,-0.99937 0.594199,-1.46742 0.265229,-0.52638 0,-3.60153 0,-4.20345 0,-1.57821 0.185462,-3.33561 0,-4.88915 -0.06714,-0.56238 -0.358675,-1.0813 -0.434917,-1.64252 -0.06995,-0.51491 0.05961,-1.04271 0,-1.55892 -0.154384,-1.33686 -0.3581,-2.35416 -0.3581,-3.70866"
       id="path1059" />
    <path
       style="fill:#0000ff;stroke-width:0.264583"
       d="m 89.228101,161.16457 c 1.327488,-5.02986 1.64026,-10.37729 1.64026,-15.74514 0,-1.32371 0.16287,-2.76499 0,-4.07467 -0.166081,-1.33551 -0.507833,-2.66477 -0.709422,-3.98317 0.0569,-0.8621 -0.575294,-1.54023 -0.708295,-2.34629 -0.06265,-0.3797 0.05362,-0.77343 0,-1.15451 -0.27931,-1.98515 -0.967197,-3.85978 -1.704649,-5.70589"
       id="path1061" />
    <path
       style="fill:#0000ff;stroke-width:0.264583"
       d="m 89.580555,116.89224 c -0.719569,-2.8765 -0.551273,-5.80521 -0.551273,-8.79098 0,-1.07995 -0.192389,-2.40697 0,-3.4737 0.161137,-0.89343 0.547389,-1.73137 0.709425,-2.61741 0.162287,-0.88741 0.151693,-1.71461 0.32082,-2.599332 0.08686,-0.454367 0.529154,-0.787945 0.620181,-1.241491 0.06313,-0.31455 -0.05274,-0.646012 0,-0.962467 0.176445,-1.058664 1.550429,-3.864938 2.240108,-4.751332 0.726435,-0.933638 1.310243,-1.977935 2.022083,-2.929197 0.194691,-0.260173 0.505704,-0.427405 0.671016,-0.707165 0.185258,-0.313513 0.168674,-0.720807 0.35697,-1.032505 0.164801,-0.272801 0.480272,-0.424767 0.675534,-0.676664 0.594172,-0.766498 1.372428,-2.182415 1.551017,-3.108811 0.120179,-0.623388 -0.110977,-1.279507 0,-1.904601 0.06341,-0.357134 0.302241,-0.670047 0.353584,-1.029115 0.139964,-0.978869 0,-1.977649 0,-2.966474 0,-2.878741 0,-5.757479 0,-8.636217"
       id="path1063" />
    <path
       style="fill:#0000ff;stroke-width:0.264583"
       d="m 98.799673,60.052489 c 0.148743,-0.87268 -0.446506,-1.566833 -0.578382,-2.368889 -0.150519,-0.915421 -0.222131,-7.330119 0,-8.136908 0.198861,-0.722286 0.626184,-1.273416 0.942131,-1.910247 0.190592,-0.384161 0.251322,-1.419386 0.578384,-1.746448 0.591804,-0.591802 -0.01413,0.905097 0.578384,-0.289192 0.40242,-0.811131 1.05444,-2.142064 2.05258,-2.641135 0.0879,-0.04395 0.22468,0.06882 0.29484,0 0.20048,-0.196633 0.0818,-0.330083 0.57839,-0.578384 0.39184,-0.195919 0.40355,-0.689941 0.5829,-0.872093 0.14139,-0.1436 0.43547,-0.146275 0.57838,-0.289192 0.0682,-0.06816 -0.0688,-0.221692 0,-0.289193 0.377,-0.369776 1.02838,-0.08151 1.45726,-0.289192 0.45715,-0.221366 0.7379,-0.649732 1.19179,-0.878872 0.23215,-0.117199 0.64056,0.11633 0.87322,0 0.99538,-0.497689 2.14166,-0.05866 2.60273,-0.289192 0.90916,-0.45458 1.78799,-0.582901 2.89756,-0.582901"
       id="path1065" />
    <path
       style="fill:#0000ff;stroke-width:0.264583"
       d="m 124.58971,39.726597 c 1.95335,-1.301395 3.77556,-1.702946 6.05721,-1.135303 0.18892,0.047 0.40052,-0.06499 0.58403,0 0.0316,0.01119 0.57084,0.586647 0.61567,0.615661 0.44621,0.28879 1.0389,0.962689 1.50018,1.182749 0.0965,0.04604 0.24331,-0.07367 0.32082,0 0.15832,0.150471 0.13991,0.431207 0.29484,0.585163 0.68163,0.677325 1.75292,1.220946 2.396,2.105676 0.1377,0.189441 0.12983,0.47095 0.29371,0.638257 0.72109,0.736147 0.47778,-0.08528 0.92067,0.589679 1.19297,1.818071 2.55144,3.276026 4.54347,4.244115"
       id="path1067" />
    <path
       style="fill:#0000ff;stroke-width:0.264583"
       d="m 151.72968,52.951475 c 1.28265,0.04824 4.29289,-1.174184 5.46189,-0.584034 0.48126,0.242957 1.80809,0.59081 2.33048,0.59081"
       id="path1069" />
    <path
       style="fill:#0000ff;stroke-width:0.264583"
       d="m 167.85665,57.715231 c 0.95018,0.1807 2.76765,0.612505 2.76765,1.395124"
       id="path1071" />
    <path
       style="fill:#0000ff;stroke-width:0.264583"
       d="m 122.92799,266.62919 c -0.5317,-0.10731 -1.07362,-0.17261 -1.59508,-0.32194 -1.22851,-0.35179 -2.30193,-1.48503 -3.43641,-2.05258 -0.33386,-0.16702 -0.72795,-0.18897 -1.06188,-0.35584 -1.30903,-0.65417 -2.22858,-1.69153 -3.31892,-2.61063 -1.54565,-1.30291 -3.36334,-2.30329 -5.0586,-3.38219 -1.00583,-0.64013 -1.85925,-1.50692 -2.88627,-2.11246 -0.66753,-0.39358 -3.42279,-1.36994 -3.00827,-2.55302 0.35466,-1.01226 0.74221,-0.71912 1.49227,-1.20534 0.22834,-0.14802 0.82807,-0.86767 0.92293,-0.91615 0.18273,-0.0934 0.43332,0.0942 0.61566,0 0.5261,-0.27169 1.57173,-1.27137 2.12601,-1.53634 0.1855,-0.0887 0.47002,0.14397 0.61679,0 0.13964,-0.13128 -0.13526,-0.43622 0,-0.56934 0.0676,-0.0666 0.21877,0.0683 0.28468,0 0.32458,-0.33618 0.41063,-5.2911 0.28919,-5.96119 -0.27379,-1.51067 -1.08286,-2.82428 -1.75435,-4.14584 -0.66669,-1.31209 -1.6424,-4.9079 -1.84134,-6.31929 -0.21597,-1.53218 -0.21381,-5.98996 0,-7.53029 0.0484,-0.34871 0.30524,-0.6465 0.35358,-0.99522 0.14094,-1.01676 -0.14144,-2.06275 0,-3.07944 0.0755,-0.54277 0.35731,-1.04325 0.43266,-1.58604 0.5393,-3.88498 -0.70458,-8.07371 0.35245,-11.86138 0.12282,-0.4401 -0.25715,-0.90642 0.28919,-1.1884 1.03018,-0.53171 1.6495,2.80719 1.88766,3.27713 0.19124,0.37738 0.51253,0.67885 0.70377,1.05623 0.0663,0.13076 0.65854,1.97256 0.70717,2.09212 0.51721,1.27157 1.40309,2.99272 1.68544,4.30286 0.14954,0.69387 0.0747,1.47763 0.30275,2.14973 0.0453,0.13364 0.25381,0.1658 0.29936,0.29936 0.17678,0.51834 0.12364,1.23809 0.29936,1.75662 0.12565,0.37079 0.52359,0.83708 0.62131,1.20873 0.076,0.28915 -0.0577,0.60358 0,0.89694 0.11709,0.59546 0.47657,1.19356 0.59194,1.79164 0.0318,0.16489 -0.033,1.75673 0,1.9046 0.0573,0.25731 0.31324,0.44105 0.37165,0.69812 0.0693,0.30477 -0.0556,0.63007 0,0.93762 0.0647,0.35752 0.29194,0.67258 0.35584,1.03024 0.0564,0.31545 -0.0609,0.64674 0,0.96134 0.21105,1.08989 0.87575,2.00778 1.00992,3.18789 0.0585,0.51444 -0.0547,1.03842 0,1.55328 0.0855,0.80403 0.34519,1.58403 0.4191,2.38921 0.10294,1.12156 -0.12754,2.25978 0,3.37881 0.12146,1.06571 0.39936,2.1109 0.49931,3.17885 0.13413,1.43329 0,2.87911 0,4.31867 0,0.85176 0.11313,1.71107 0,2.55528 -0.21703,1.61946 -0.8215,4.03127 -0.0678,5.5387 0.18803,0.37607 -0.301,1.72335 0,2.02435 0.0682,0.0682 0.22169,-0.0688 0.28919,0 0.18589,0.18952 -0.1222,0.92126 0,1.16806 0.17034,0.344 1.62128,2.27411 1.74532,2.33612 0.178,0.089 0.75469,0.1674 0.87887,0.2892 0.0688,0.0675 -0.0682,0.22103 0,0.28919 0.13633,0.13633 0.44206,-0.13633 0.57838,0 0.0682,0.0682 -0.0682,0.22103 0,0.28919 0.19374,0.19374 0.96045,-0.19172 1.15677,0 0.0673,0.0658 -0.0575,0.2079 0,0.28241 0.0911,0.11804 0.35491,-0.11701 0.44734,0 0.06,0.0759 -0.0719,0.22552 0,0.29033 0.023,0.0208 0.5784,-0.019 0.6168,0 0.56739,0.28095 1.02685,0.79946 1.02685,1.34089"
       id="path1073" />
    <path
       style="fill:#0000ff;stroke-width:0.264583"
       d="m 106.75923,196.29347 c 0.25604,-0.90936 -0.1881,-1.97678 0,-2.90209 0.11529,-0.56716 0.53137,-1.04453 0.64503,-1.61202 0.0652,-0.32565 -0.0572,-0.6692 0,-0.99636 0.0623,-0.35624 0.23572,-0.68381 0.35358,-1.02572 0.1397,-0.52755 0.33043,-1.04417 0.4191,-1.58265 0.72699,-4.41482 0.54409,-9.09201 -1.34655,-13.25425 -0.89625,-1.97311 -2.02546,-3.80589 -3.31554,-5.50481 -0.54931,-0.7234 -1.43561,-1.21403 -1.94526,-1.97125 -0.0549,-0.0815 0.0702,-0.22607 0,-0.29484 -0.44245,-0.43331 -0.6421,-0.0829 -0.90373,-0.61792 -0.0768,-0.15705 0.0771,-0.43165 0,-0.58855 -0.14934,-0.30395 -0.43085,-0.28566 -0.5829,-0.58742 -0.08675,-0.17217 0.061,-0.39549 0,-0.57839 -0.139486,-0.41846 -0.469506,-0.8023 -0.585161,-1.15676 -0.04834,-0.14817 0.04561,-1.03837 0,-1.20083 -0.06878,-0.24502 -0.284855,-0.43162 -0.353581,-0.67666 -0.194947,-0.69509 0.23078,-1.16447 0.353581,-1.81536 0.05787,-0.30675 -0.05934,-0.63001 0,-0.93648 0.260851,-1.34709 1.131081,-2.60959 1.726111,-3.79903 0.71514,-1.42951 -0.006,-0.6865 0.70943,-2.09212 0.58348,-1.1471 1.08478,-2.15751 1.60411,-3.25454 0.13066,-0.27602 -0.0943,-0.62571 0,-0.91615 0.19199,-0.59112 0.60719,-1.24376 0.87887,-1.78712 0.12933,-0.25866 -0.0914,-0.59322 0,-0.86757 0.0431,-0.12933 0.24643,-0.15975 0.28919,-0.2892 0.12177,-0.36863 -0.12277,-0.79637 0,-1.16467 0.0431,-0.12933 0.24634,-0.15978 0.28919,-0.28919 0.11239,-0.33934 0.13654,-6.37727 0,-6.85814 -0.0683,-0.24059 -0.30628,-0.41353 -0.36149,-0.65746 -0.33419,-1.47673 0.26907,-3.16997 0,-4.66096 -0.0629,-0.34833 -0.29251,-0.65242 -0.35471,-1.00087 -0.18016,-1.00928 0.22008,-2.15469 0,-3.15626 -0.0567,-0.25823 -0.28507,-0.45437 -0.35471,-0.70942 -0.21739,-0.79616 0.27786,-1.85454 0,-2.62984 -0.0514,-0.14338 -0.28502,-0.17562 -0.32308,-0.32308 -0.33503,-1.29794 0.16068,-2.47951 -0.31743,-3.87472 -0.12234,-0.35701 0.11687,-0.84403 0,-1.20196 -0.12433,-0.38075 -0.46432,-0.83111 -0.58065,-1.20986 -0.33745,-1.09869 -0.36662,-2.31235 -0.61227,-3.43415 -0.22223,-1.01481 -0.66424,-1.71427 -0.66424,-2.80606 0,-0.26496 -0.80073,-3.59688 -1.16354,-3.27375 -0.20218,0.18007 0.0874,0.55596 0,0.81223 -0.0443,0.13004 -0.24645,0.16313 -0.289195,0.29371 -0.506521,1.54726 0.401755,5.93664 0,7.75734 -0.423542,1.91943 -0.354711,0.2502 -0.354711,1.64704 0,1.54606 0.09178,-0.33688 -0.29936,1.21438 -0.06262,0.24834 0.128604,0.91537 0,1.17258 -0.329451,0.6589 -0.289192,1.22318 -0.289192,2.02434 0,2.72812 0,5.45624 0,8.18436 0,1.2601 0.266925,2.85121 0,4.07241 -0.07745,0.35435 -0.290211,0.67197 -0.353581,1.02911 -0.144365,0.8136 0.148426,1.70635 0,2.51913 -0.14636,0.80147 -0.564674,1.53789 -0.703776,2.34065 -0.05671,0.32724 0.04584,0.66742 0,0.99636 -0.291867,2.09436 -1.112602,4.13366 -1.477589,6.18599 -0.15902,0.89416 0,2.01088 0,2.92129 0,2.1181 0,4.23621 0,6.35431 0,0.55695 0.172407,1.49904 0,2.02435 -0.213101,0.64929 -0.30185,1.20241 -0.578385,1.75548 -0.129328,0.25866 0.07383,0.58796 0,0.86758 -0.272232,1.03107 -0.678421,2.01269 -0.94552,3.03877 -0.103492,0.39757 0.124462,0.84094 0,1.23245 -0.044,0.13842 -0.249793,0.18275 -0.294841,0.32082 -0.526378,1.61342 0.465553,4.81351 0,6.5136 -0.06704,0.24481 -0.299236,0.42646 -0.353581,0.6744 -0.139568,0.63675 -0.171911,3.45875 0,4.15714 0.402489,1.63511 1.701937,3.02247 2.62306,4.4 0.530828,0.79385 0.385003,0.78267 0.629216,1.55554 0.335772,1.06263 1.887588,2.59242 2.406169,3.62958 0.517936,1.03589 0.635826,2.42192 1.166936,3.47595 0.13081,0.25961 -0.0915,0.59617 0,0.8721 0.0432,0.13041 0.2285,0.17044 0.28919,0.29371 0.35104,0.71305 0.52067,1.6197 0.87322,2.31805 0.0907,0.17965 0.16357,0.74846 0.2892,0.87661 0.13936,0.14217 0.42921,0.14793 0.57047,0.2892 0.0682,0.0682 -0.0682,0.22102 0,0.28919 0.13393,0.13393 0.43456,-0.1342 0.56822,0 0.0659,0.0662 -0.0671,0.21518 0,0.28015 0.26213,0.25394 1.80835,-0.24673 1.81648,-0.25982 0.0473,-0.0761 -0.081,-0.23043 0,-0.26886 0.37391,-0.17748 0.80281,-0.20183 1.20422,-0.30274 z"
       id="path1075" />
    <path
       style="fill:#0000ff;stroke-width:0.264583"
       d="m 106.45422,101.78309 c 1.36987,-2.766245 2.90119,-5.356852 4.76263,-7.82512 0.66302,-0.879174 0.99993,-0.661049 1.43127,-1.769042 0.0839,-0.215452 -0.0548,-0.468992 0,-0.693607 0.12628,-0.517602 0.48034,-0.973942 0.60889,-1.495664 0.0696,-0.282622 -0.0976,-0.598998 0,-0.873225 0.87645,-2.462705 0.6581,-4.070916 0.0158,-6.546353 -0.17256,-0.66504 0.12141,-1.489511 0,-2.163291 -0.20318,-1.127522 -0.50557,-2.201693 -0.70717,-3.349429 -0.14271,-0.812533 0.15055,-1.7037 0,-2.514613 -0.0643,-0.346491 -0.27812,-0.652116 -0.35358,-0.996355 -0.3363,-1.53429 0,-5.24769 0,-7.01629 0,-0.632777 -0.28919,-0.795292 -0.28919,-1.445961 0,-0.659968 0.0276,-1.273048 -0.15928,-1.151117 -0.23621,0.154117 0.0897,0.57872 0,0.846111 -0.0442,0.13177 -0.25089,0.162983 -0.29484,0.294841 -0.14302,0.429054 -0.43151,2.307841 -0.60663,2.658078 -0.25045,0.500915 -0.33118,0.954455 -0.5829,1.454997 -0.13162,0.261726 0.0932,0.601128 0,0.878872 -0.0442,0.131773 -0.25038,0.163155 -0.29484,0.294841 -0.25414,0.752686 -0.2054,0.98902 -0.58064,1.73515 -0.17393,0.345832 -0.15438,6.825197 0,7.297574 0.12946,0.396134 0.46416,0.820959 0.59081,1.205343 0.10406,0.315842 0.15913,2.002954 0,2.323701 -0.35402,0.713557 -1.22317,1.631979 -1.46517,2.39939 -0.0631,0.200027 0.0517,0.425942 0,0.629216 -0.23278,0.915786 -0.85134,1.693653 -1.2268,2.444575 -0.08,0.159978 -0.24659,1.02897 -0.28919,1.156769 -0.11167,0.334989 0.15466,0.845029 0,1.156766 -0.71522,1.441601 -0.29664,2.915635 -0.87662,4.062241 -0.23664,0.467855 0.22438,4.851352 0.2892,4.920779 0.0614,0.06578 0.20792,-0.06518 0.26998,0 0.13061,0.13717 0.0252,0.380503 0,0.568213 -0.0681,0.50605 -0.16116,1.00841 -0.24174,1.51261 z"
       id="path1077" />
    <path
       style="fill:#0000ff;stroke-width:0.264583"
       d="m 170.55313,94.516018 c -0.89449,-3.237045 -3.62485,-5.551236 -4.85865,-8.587639 -0.25506,-0.627719 -0.61064,-1.406337 -0.97489,-1.975768 -0.15639,-0.244486 -0.52335,-0.340508 -0.61566,-0.615662 -0.0926,-0.27596 0.13017,-0.612881 0,-0.873225 -0.52269,-1.045372 -0.19324,-1.927696 0.29484,-2.91338 0.1149,-0.232043 -0.11577,-0.636032 0,-0.867577 0.061,-0.121933 0.24712,-0.15952 0.28919,-0.289192 0.22551,-0.695018 0.17931,-2.824954 0,-3.494024 -0.14187,-0.529379 -0.4966,-0.968806 -0.64051,-1.492274 -0.0776,-0.282115 0.0932,-0.600392 0,-0.877745 -0.12656,-0.376753 -0.76107,-1.651767 -0.58855,-1.961081 0.20838,-0.37362 0.68954,-0.400351 0.86757,-0.578384 0.0682,-0.06816 -0.0682,-0.221028 0,-0.28919 0.36773,-0.367728 1.04245,0.191786 1.13644,0.504955 0.0162,0.05398 -0.016,1.116505 0,1.173713 0.21167,0.754734 0.52919,1.493742 0.68795,2.255922 0.0653,0.313711 -0.0639,0.647324 0,0.961337 0.0461,0.226766 0.27566,0.388699 0.32083,0.615662 0.44633,2.242658 -0.59315,-0.279154 0.35358,2.018694 0.90523,2.197121 -0.25592,-1.351428 0.32873,1.613148 0.0905,0.45882 0.5053,0.805672 0.61792,1.259565 0.13444,0.541819 -0.17344,1.22764 0,1.756617 0.25621,0.781388 0.55387,1.43076 0.87774,2.103416 0.29577,0.614283 0.29517,1.547077 0.58968,2.162162 0.40097,0.837406 1.03707,0.915421 1.45161,1.750967 0.0847,0.170683 -0.135,0.437147 0,0.571603 0.11182,0.111369 0.37478,0.178015 0.57613,0.578385 0.0875,0.173924 -0.13899,0.447712 0,0.584033 0.58661,0.575379 0.0101,-0.874414 0.58403,0.293709 0.25602,0.521054 0.0983,2.39668 0.2858,2.579005 0.0678,0.06588 0.21671,-0.06683 0.28355,0 0.035,0.035 0.0405,1.125979 0,1.164674 -0.14283,0.136361 -0.4102,0.15439 -0.53772,0.298228 -0.0595,0.06706 0.0824,0.233582 0,0.268859 -0.4177,0.178861 -0.8864,0.200327 -1.32961,0.300487 z"
       id="path1079" />
  </g>
</svg>
